<svg width="735" height="440" viewBox="0 0 735 440" fill="none" xmlns="http://www.w3.org/2000/svg">
<g opacity="0.35">
<path fill-rule="evenodd" clip-rule="evenodd" d="M377.161 60.8491C377.161 61.3112 376.739 61.6857 376.219 61.6857C375.699 61.6857 375.278 61.3112 375.278 60.8491C375.278 60.3871 375.699 60.0126 376.219 60.0126C376.739 60.0126 377.161 60.3871 377.161 60.8491ZM381.119 62.3549C381.639 62.3549 382.06 61.9804 382.06 61.5183C382.06 61.0563 381.639 60.6818 381.119 60.6818C380.599 60.6818 380.177 61.0563 380.177 61.5183C380.177 61.9804 380.599 62.3549 381.119 62.3549ZM384.507 64.6971C384.507 65.3439 383.917 65.8683 383.189 65.8683C382.461 65.8683 381.871 65.3439 381.871 64.6971C381.871 64.0502 382.461 63.5259 383.189 63.5259C383.917 63.5259 384.507 64.0502 384.507 64.6971ZM373.96 66.5378C374.688 66.5378 375.278 66.0135 375.278 65.3666C375.278 64.7198 374.688 64.1954 373.96 64.1954C373.232 64.1954 372.642 64.7198 372.642 65.3666C372.642 66.0135 373.232 66.5378 373.96 66.5378ZM368.503 69.7167C369.231 69.7167 369.821 69.1923 369.821 68.5455C369.821 67.8986 369.231 67.3743 368.503 67.3743C367.775 67.3743 367.185 67.8986 367.185 68.5455C367.185 69.1923 367.775 69.7167 368.503 69.7167ZM363.984 77.0784C364.712 77.0784 365.302 76.554 365.302 75.9072C365.302 75.2603 364.712 74.736 363.984 74.736C363.256 74.736 362.666 75.2603 362.666 75.9072C362.666 76.554 363.256 77.0784 363.984 77.0784ZM372.643 73.398C372.643 74.0448 372.052 74.5692 371.324 74.5692C370.597 74.5692 370.006 74.0448 370.006 73.398C370.006 72.7512 370.597 72.2268 371.324 72.2268C372.052 72.2268 372.643 72.7512 372.643 73.398ZM373.769 70.3863C374.289 70.3863 374.711 70.0117 374.711 69.5497C374.711 69.0877 374.289 68.7131 373.769 68.7131C373.249 68.7131 372.828 69.0877 372.828 69.5497C372.828 70.0117 373.249 70.3863 373.769 70.3863ZM368.122 72.0594C368.122 72.5214 367.7 72.8959 367.18 72.8959C366.66 72.8959 366.239 72.5214 366.239 72.0594C366.239 71.5973 366.66 71.2228 367.18 71.2228C367.7 71.2228 368.122 71.5973 368.122 72.0594ZM369.254 77.5806C369.774 77.5806 370.196 77.2061 370.196 76.744C370.196 76.282 369.774 75.9075 369.254 75.9075C368.734 75.9075 368.313 76.282 368.313 76.744C368.313 77.2061 368.734 77.5806 369.254 77.5806ZM361.723 73.0634C361.723 73.5254 361.301 73.9 360.781 73.9C360.261 73.9 359.84 73.5254 359.84 73.0634C359.84 72.6014 360.261 72.2268 360.781 72.2268C361.301 72.2268 361.723 72.6014 361.723 73.0634ZM379.611 68.8804C380.131 68.8804 380.552 68.5059 380.552 68.0438C380.552 67.5818 380.131 67.2073 379.611 67.2073C379.091 67.2073 378.669 67.5818 378.669 68.0438C378.669 68.5059 379.091 68.8804 379.611 68.8804Z" fill="white"/>
<path fill-rule="evenodd" clip-rule="evenodd" d="M360.141 79.7188C357.331 77.7338 355.236 74.5476 356.465 71.9986C357.693 69.4497 362.961 67.7578 366.434 65.3036C369.906 62.8494 372.025 57.8939 375.284 56.9401C378.542 55.9864 382.472 57.2743 384.937 59.3701C387.402 61.466 389.599 63.9265 388 66.838C386.401 69.7495 381.188 70.5306 377.977 73.2801C374.765 76.0297 372.501 80.6369 369.693 81.5885C366.885 82.5401 362.951 81.7039 360.141 79.7188Z" stroke="white" stroke-width="2.5"/>
<path d="M356.031 79.8413C356.031 79.8413 357.262 83.6724 360.453 85.6029C363.645 87.5335 365.917 88.235 369.404 87.2704C372.891 86.3058 374.607 81.612 377.477 79.4472C381.925 76.0927 389.049 74.275 388.545 70.3098" stroke="white" stroke-width="2.5" stroke-linecap="round"/>
<path d="M485.513 31.0635L477.911 12.2648C477.458 11.1447 478.086 9.84338 479.274 9.44086V9.44086C480.329 9.0831 481.455 9.56884 481.868 10.56L483.548 14.594" stroke="white" stroke-width="2.5" stroke-linecap="round"/>
<path d="M483.617 14.7523L480.595 7.40159C480.135 6.28289 480.76 4.97732 481.949 4.57431V4.57431C483.001 4.21773 484.123 4.70128 484.536 5.68875L486.916 11.3895" stroke="white" stroke-width="2.5" stroke-linecap="round"/>
<path d="M486.252 9.60293L484.473 5.2746C484.013 4.15757 484.638 2.85396 485.825 2.45156V2.45156C486.878 2.09465 488.001 2.58072 488.41 3.57055L491.429 10.8689" stroke="white" stroke-width="2.5" stroke-linecap="round"/>
<path d="M490.132 7.56457L488.987 4.78098C488.529 3.66544 489.152 2.36357 490.338 1.96171V1.96171C491.392 1.60451 492.515 2.09282 492.922 3.08474L505.675 34.1835" stroke="white" stroke-width="2.5" stroke-linecap="round"/>
<path d="M495.601 27.9628L487.615 17.6894C486.826 16.6741 487.033 15.1901 488.08 14.3515V14.3515C488.973 13.6355 490.226 13.6019 491.102 14.2704L495.361 17.5205" stroke="white" stroke-width="2.5" stroke-linecap="round"/>
<path d="M499.908 12.0149L505.466 6.28757C506.231 5.49987 507.451 5.38165 508.3 6.01313V6.01313C509.28 6.74174 509.378 8.16754 508.513 9.09222L502.294 15.7424" stroke="white" stroke-width="2.5" stroke-linecap="round"/>
<path d="M507.799 9.95629L508.304 9.43539C509.057 8.65996 510.259 8.54536 511.093 9.16963V9.16963C512.052 9.8884 512.145 11.2895 511.292 12.1952L505.641 18.1979" stroke="white" stroke-width="2.5" stroke-linecap="round"/>
<path d="M508.485 15.1783L508.989 14.6596C509.742 13.8829 510.947 13.7681 511.782 14.3934V14.3934C512.741 15.1119 512.835 16.5117 511.986 17.4193L505.263 24.6013" stroke="white" stroke-width="2.5" stroke-linecap="round"/>
<path d="M498.262 7.74412L501.656 4.33016C502.388 3.59373 503.541 3.48773 504.345 4.08283V4.08283C505.286 4.77872 505.383 6.14598 504.554 7.03244L502.392 9.34411" stroke="white" stroke-width="2.5" stroke-linecap="round"/>
<path d="M138.352 87.901C138.352 87.901 142.758 87.9644 143.291 84.5515H163.153L161.956 95.0297" stroke="white" stroke-width="2.5" stroke-linecap="round" stroke-linejoin="round"/>
<path d="M162.717 89.7415C162.717 89.7415 168.065 95.4442 164.432 97.6755C162.928 98.5995 159.794 98.1847 155.536 95.815C152.818 94.302 145.934 88.9486 145.934 88.9486" stroke="white" stroke-width="2.5" stroke-linecap="round" stroke-linejoin="round"/>
<path d="M140.184 87.8655L142.301 104.901H160.748L161.645 98.1602" stroke="white" stroke-width="2.5" stroke-linecap="round" stroke-linejoin="round"/>
<path d="M145.115 82.2226C145.115 82.2226 144.072 78.9682 146.771 77.7731C149.47 76.5779 152.09 79.4165 152.09 79.4165" stroke="white" stroke-width="2.5" stroke-linecap="round" stroke-linejoin="round"/>
<path d="M150.008 77.6888C150.008 77.6888 151.091 75.0974 153.625 75.0402C156.158 74.9831 157.182 77.2485 157.182 77.2485C157.182 77.2485 159.428 76.4477 160.767 77.1626C162.106 77.8775 162.041 79.4701 162.041 79.4701C162.041 79.4701 164.803 79.7587 165.156 81.6889C165.51 83.6192 163.248 84.5905 163.248 84.5905" stroke="white" stroke-width="2.5" stroke-linecap="round" stroke-linejoin="round"/>
<path d="M140.553 91.5077C140.553 91.5077 136.737 92.7003 135.271 90.6805C133.805 88.6606 135.975 86.676 135.975 86.676C135.975 86.676 134.677 84.6873 135.577 83.0147C136.477 81.3421 139.103 80.5763 141.182 81.6672" stroke="white" stroke-width="2.5" stroke-linecap="round" stroke-linejoin="round"/>
<path d="M138.794 81.0972C138.794 81.0972 138.489 78.8955 139.743 77.8057C140.997 76.716 143.232 77.1024 143.232 77.1024" stroke="white" stroke-width="2.5" stroke-linecap="round" stroke-linejoin="round"/>
<path fill-rule="evenodd" clip-rule="evenodd" d="M229.233 16.3792C229.627 16.5803 230.131 16.4625 230.357 16.1159C230.584 15.7693 230.448 15.3253 230.053 15.1241C229.659 14.9229 229.155 15.0408 228.929 15.3874C228.702 15.734 228.838 16.178 229.233 16.3792ZM225.89 15.6754C226.284 15.8766 226.788 15.7587 227.014 15.4122C227.241 15.0656 227.105 14.6215 226.71 14.4204C226.316 14.2192 225.812 14.3371 225.586 14.6836C225.359 15.0302 225.495 15.4743 225.89 15.6754ZM224.576 17.6834C224.971 17.8845 225.474 17.7667 225.701 17.4201C225.927 17.0735 225.791 16.6295 225.397 16.4283C225.002 16.2271 224.499 16.345 224.272 16.6916C224.046 17.0382 224.182 17.4822 224.576 17.6834ZM224.299 19.5538C224.072 19.9003 223.569 20.0182 223.175 19.817C222.78 19.6159 222.644 19.1718 222.87 18.8252C223.097 18.4787 223.6 18.3608 223.995 18.562C224.389 18.7631 224.525 19.2072 224.299 19.5538ZM228.557 18.8772C228.331 19.2238 227.828 19.3417 227.433 19.1405C227.039 18.9394 226.902 18.4953 227.129 18.1487C227.356 17.8021 227.859 17.6843 228.253 17.8854C228.648 18.0866 228.784 18.5307 228.557 18.8772ZM225.54 22.0271C225.935 22.2283 226.438 22.1104 226.665 21.7638C226.891 21.4173 226.755 20.9732 226.361 20.772C225.966 20.5709 225.463 20.6887 225.236 21.0353C225.01 21.3819 225.146 21.8259 225.54 22.0271Z" fill="white"/>
<path d="M208.324 14.5801L212.324 16.6199" stroke="white" stroke-width="2.5" stroke-linecap="round"/>
<path d="M206.359 17.5923L210.359 19.6322" stroke="white" stroke-width="2.5" stroke-linecap="round"/>
<path fill-rule="evenodd" clip-rule="evenodd" d="M206.171 17.5028L208.072 14.5943L205.015 13.0352L204.503 11.1095L209.019 9.48355C210.778 8.85029 212.714 8.95142 214.298 9.75932L221.825 13.5984C222.375 13.8789 222.547 14.5251 222.21 15.0417L221.368 16.3291C221.101 16.7373 220.533 16.8887 220.098 16.6671V16.6671C217.057 15.1161 213.078 16.1753 211.21 19.0329L210.207 20.5674C208.96 22.4753 208.635 24.7333 209.312 26.7787V26.7787C209.989 28.8241 209.663 31.0821 208.416 32.99L206.452 35.9954L194.119 29.7059C194.119 29.7059 196.79 24.899 199.644 22.0092C202.498 19.1195 206.171 17.5028 206.171 17.5028Z" stroke="white" stroke-width="2.5" stroke-linecap="round" stroke-linejoin="round"/>
<path d="M219.455 13.0575C216.975 16.5013 216.183 19.1278 217.078 20.9371" stroke="white" stroke-width="2.5" stroke-linecap="round"/>
<path d="M642.887 65.2763L655.525 76.5986L662.892 70.1574L670.698 71.9219L684.405 84.1364L687.923 80.9913L674.335 68.8943L672.31 61.7228L679.506 55.3567L666.79 43.9994" stroke="white" stroke-width="2.5" stroke-linecap="round" stroke-linejoin="round"/>
<path d="M650.789 71.7275L674.308 50.9755" stroke="white" stroke-width="2.5" stroke-linecap="round" stroke-linejoin="round"/>
<path d="M663.128 70.2295L661.254 68.5901L670.563 60.3258L672.302 61.9459" stroke="white" stroke-width="2.5" stroke-linecap="round" stroke-linejoin="round"/>
<path d="M670.848 72.1241L674.288 69.1327" stroke="white" stroke-width="2.5" stroke-linecap="round" stroke-linejoin="round"/>
<path d="M680.723 80.6818L684.163 77.6904" stroke="white" stroke-width="2.5" stroke-linecap="round" stroke-linejoin="round"/>
<path d="M676.02 76.507L679.46 73.5156" stroke="white" stroke-width="2.5" stroke-linecap="round" stroke-linejoin="round"/>
<path d="M652.352 79.6575L657.36 84.1366" stroke="white" stroke-width="2.5" stroke-linecap="round" stroke-linejoin="round"/>
<path d="M659.172 79.6575L664.181 84.1366" stroke="white" stroke-width="2.5" stroke-linecap="round" stroke-linejoin="round"/>
<path d="M679.645 61.4991L684.653 65.9783" stroke="white" stroke-width="2.5" stroke-linecap="round" stroke-linejoin="round"/>
<path d="M679.645 49.3932L684.653 53.8723" stroke="white" stroke-width="2.5" stroke-linecap="round" stroke-linejoin="round"/>
<path d="M717.326 21.7836L706.095 18.1729C705.324 17.9249 704.949 17.1166 705.257 16.3674V16.3674C705.566 15.6183 706.442 15.212 707.213 15.46L717.325 18.711C719.93 19.5487 721.197 22.2791 720.155 24.8095V24.8095C719.936 25.3409 719.315 25.6291 718.767 25.4531L703.532 20.5549" stroke="white" stroke-width="2.5" stroke-linecap="round"/>
<path d="M705.166 16.5744L707.933 9.85735C708.928 7.44344 711.749 6.13438 714.235 6.93348L718.085 8.17126C722.434 9.5697 724.549 14.1279 722.809 18.3522L720.865 23.0705" stroke="white" stroke-width="2.5"/>
<path fill-rule="evenodd" clip-rule="evenodd" d="M338.129 18.8986C338.129 18.8986 329.183 21.5585 327.636 28.3229C327.636 28.3229 325.04 20.3799 316.926 18.8986C316.926 18.8986 325.569 16.496 327.636 9.56702C327.636 9.56702 328.993 13.413 331.692 15.7276C333.879 17.6034 338.129 18.8986 338.129 18.8986Z" stroke="white" stroke-width="2.5" stroke-linecap="round" stroke-linejoin="round"/>
<path fill-rule="evenodd" clip-rule="evenodd" d="M624.199 13.0465C624.199 13.0465 616.353 15.376 614.997 21.3002C614.997 21.3002 612.72 14.3438 605.604 13.0465C605.604 13.0465 613.184 10.9423 614.997 4.87402C614.997 4.87402 616.187 8.24225 618.554 10.2693C620.472 11.9122 624.199 13.0465 624.199 13.0465Z" stroke="white" stroke-width="2.5" stroke-linecap="round" stroke-linejoin="round"/>
<path fill-rule="evenodd" clip-rule="evenodd" d="M232.359 82.2842C232.359 82.2842 227.129 83.8373 226.224 87.7867C226.224 87.7867 224.706 83.1491 219.962 82.2842C219.962 82.2842 225.016 80.8815 226.224 76.8359C226.224 76.8359 227.018 79.0814 228.596 80.4328C229.875 81.5281 232.359 82.2842 232.359 82.2842Z" stroke="white" stroke-width="2.5" stroke-linecap="round" stroke-linejoin="round"/>
<path fill-rule="evenodd" clip-rule="evenodd" d="M501.996 88.1546C501.996 88.1546 497.513 89.4858 496.738 92.871C496.738 92.871 495.436 88.8959 491.37 88.1546C491.37 88.1546 495.702 86.9522 496.738 83.4846C496.738 83.4846 497.418 85.4093 498.77 86.5677C499.866 87.5064 501.996 88.1546 501.996 88.1546Z" stroke="white" stroke-width="2.5" stroke-linecap="round" stroke-linejoin="round"/>
<path fill-rule="evenodd" clip-rule="evenodd" d="M718.062 53.3565C718.062 53.3565 715.447 54.133 714.995 56.1077C714.995 56.1077 714.236 53.7889 711.864 53.3565C711.864 53.3565 714.391 52.6551 714.995 50.6323C714.995 50.6323 715.392 51.7551 716.181 52.4308C716.82 52.9784 718.062 53.3565 718.062 53.3565Z" stroke="white" stroke-width="2.5" stroke-linecap="round" stroke-linejoin="round"/>
<path d="M397.953 16.1624H400.501" stroke="white" stroke-width="3" stroke-linecap="round" stroke-linejoin="round"/>
<path d="M399.227 15.042V17.2829" stroke="white" stroke-width="3" stroke-linecap="round" stroke-linejoin="round"/>
<path d="M561.77 16.1626H564.317" stroke="white" stroke-width="3" stroke-linecap="round" stroke-linejoin="round"/>
<path d="M563.047 15.0422V17.2831" stroke="white" stroke-width="3" stroke-linecap="round" stroke-linejoin="round"/>
<path d="M729.121 35.6821H733.367" stroke="white" stroke-width="3" stroke-linecap="round" stroke-linejoin="round"/>
<path d="M731.242 33.8149V37.5498" stroke="white" stroke-width="3" stroke-linecap="round" stroke-linejoin="round"/>
<path d="M668.031 12.2518H670.579" stroke="white" stroke-width="3" stroke-linecap="round" stroke-linejoin="round"/>
<path d="M669.309 11.1316V13.3725" stroke="white" stroke-width="3" stroke-linecap="round" stroke-linejoin="round"/>
<path d="M622.426 90.0278H627.521" stroke="white" stroke-width="3" stroke-linecap="round" stroke-linejoin="round"/>
<path d="M624.973 87.7866V92.2684" stroke="white" stroke-width="3" stroke-linecap="round" stroke-linejoin="round"/>
<path d="M455.504 78.7383H458.052" stroke="white" stroke-width="3" stroke-linecap="round" stroke-linejoin="round"/>
<path d="M456.781 77.6179V79.8588" stroke="white" stroke-width="3" stroke-linecap="round" stroke-linejoin="round"/>
<path d="M300.098 86.5428H303.495" stroke="white" stroke-width="3" stroke-linecap="round" stroke-linejoin="round"/>
<path d="M301.797 85.0488V88.0367" stroke="white" stroke-width="3" stroke-linecap="round" stroke-linejoin="round"/>
<path d="M269.551 27.8954H272.099" stroke="white" stroke-width="3" stroke-linecap="round" stroke-linejoin="round"/>
<path d="M270.828 26.775V29.0159" stroke="white" stroke-width="3" stroke-linecap="round" stroke-linejoin="round"/>
<path d="M139.832 16.2157H145.145" stroke="white" stroke-width="3" stroke-linecap="round" stroke-linejoin="round"/>
<path d="M142.488 13.8689V18.5621" stroke="white" stroke-width="3" stroke-linecap="round" stroke-linejoin="round"/>
<path d="M167.723 51.3617H170.27" stroke="white" stroke-width="3" stroke-linecap="round" stroke-linejoin="round"/>
<path d="M169 50.2413V52.4822" stroke="white" stroke-width="3" stroke-linecap="round" stroke-linejoin="round"/>
<ellipse cx="430.718" cy="15.2808" rx="6.19854" ry="7.97438" stroke="white" stroke-width="2.5"/>
<path d="M427.968 15.7762C427.968 15.7762 426.795 17.4018 427.342 18.8537C427.889 20.3055 429.147 20.8797 429.147 20.8797" stroke="white" stroke-width="2.5" stroke-linecap="round"/>
<ellipse cx="132.295" cy="41.8631" rx="4.42753" ry="5.64041" stroke="white" stroke-width="2.5"/>
<path d="M130.773 42.2136C130.773 42.2136 130.022 43.469 130.326 44.3903C130.63 45.3116 131.529 45.5897 131.529 45.5897" stroke="white" stroke-width="2.5" stroke-linecap="round"/>
<ellipse cx="282.834" cy="100.919" rx="4.42753" ry="5.64041" stroke="white" stroke-width="2.5"/>
<path d="M281.312 101.269C281.312 101.269 280.561 102.525 280.865 103.446C281.17 104.367 282.068 104.645 282.068 104.645" stroke="white" stroke-width="2.5" stroke-linecap="round"/>
<ellipse cx="725.152" cy="79.2158" rx="4.87028" ry="6.2239" stroke="white" stroke-width="2.5"/>
<path d="M722.988 79.6023C722.988 79.6023 722.066 80.8711 722.496 82.0042C722.926 83.1373 723.914 83.5855 723.914 83.5855" stroke="white" stroke-width="2.5" stroke-linecap="round"/>
<path d="M558.359 77.7854C561.949 77.7854 561.428 79.9393 564.851 79.9393C568.275 79.9393 568.388 77.7854 572.038 77.7854C575.688 77.7854 575.825 79.9393 579.443 79.9393C583.061 79.9393 582.925 77.7854 586.522 77.7854C590.119 77.7854 590.298 79.9393 593.822 79.9393C597.345 79.9393 597.021 77.7854 600.632 77.7854" stroke="white" stroke-width="2.5"/>
<path d="M558.359 83.9869C561.949 83.9869 561.428 86.1408 564.851 86.1408C568.275 86.1408 568.388 83.9869 572.038 83.9869C575.688 83.9869 575.825 86.1408 579.443 86.1408C583.061 86.1408 582.925 83.9869 586.522 83.9869C590.119 83.9869 590.298 86.1408 593.822 86.1408C597.345 86.1408 597.021 83.9869 600.632 83.9869" stroke="white" stroke-width="2.5"/>
<path d="M558.359 89.8439C561.949 89.8439 561.428 91.9977 564.851 91.9977C568.275 91.9977 568.388 89.8439 572.038 89.8439C575.688 89.8439 575.825 91.9977 579.443 91.9977C583.061 91.9977 582.925 89.8439 586.522 89.8439C590.119 89.8439 590.298 91.9977 593.822 91.9977C597.345 91.9977 597.021 89.8439 600.632 89.8439" stroke="white" stroke-width="2.5"/>
<path fill-rule="evenodd" clip-rule="evenodd" d="M251.43 174.659C251.43 175.121 251.009 175.495 250.489 175.495C249.969 175.495 249.547 175.121 249.547 174.659C249.547 174.197 249.969 173.822 250.489 173.822C251.009 173.822 251.43 174.197 251.43 174.659ZM255.388 176.164C255.908 176.164 256.33 175.79 256.33 175.328C256.33 174.866 255.908 174.491 255.388 174.491C254.868 174.491 254.447 174.866 254.447 175.328C254.447 175.79 254.868 176.164 255.388 176.164ZM258.777 178.507C258.777 179.154 258.187 179.678 257.459 179.678C256.731 179.678 256.141 179.154 256.141 178.507C256.141 177.86 256.731 177.336 257.459 177.336C258.187 177.336 258.777 177.86 258.777 178.507ZM248.23 180.347C248.958 180.347 249.548 179.823 249.548 179.176C249.548 178.529 248.958 178.005 248.23 178.005C247.502 178.005 246.912 178.529 246.912 179.176C246.912 179.823 247.502 180.347 248.23 180.347ZM242.773 183.526C243.501 183.526 244.091 183.002 244.091 182.355C244.091 181.708 243.501 181.184 242.773 181.184C242.045 181.184 241.455 181.708 241.455 182.355C241.455 183.002 242.045 183.526 242.773 183.526ZM238.249 190.888C238.977 190.888 239.567 190.364 239.567 189.717C239.567 189.07 238.977 188.546 238.249 188.546C237.521 188.546 236.931 189.07 236.931 189.717C236.931 190.364 237.521 190.888 238.249 190.888ZM246.908 187.208C246.908 187.854 246.318 188.379 245.59 188.379C244.862 188.379 244.272 187.854 244.272 187.208C244.272 186.561 244.862 186.036 245.59 186.036C246.318 186.036 246.908 186.561 246.908 187.208ZM248.039 184.195C248.559 184.195 248.98 183.821 248.98 183.359C248.98 182.897 248.559 182.522 248.039 182.522C247.519 182.522 247.097 182.897 247.097 183.359C247.097 183.821 247.519 184.195 248.039 184.195ZM242.396 185.869C242.396 186.331 241.974 186.705 241.454 186.705C240.934 186.705 240.513 186.331 240.513 185.869C240.513 185.407 240.934 185.032 241.454 185.032C241.974 185.032 242.396 185.407 242.396 185.869ZM243.524 191.39C244.044 191.39 244.465 191.016 244.465 190.554C244.465 190.092 244.044 189.717 243.524 189.717C243.004 189.717 242.582 190.092 242.582 190.554C242.582 191.016 243.004 191.39 243.524 191.39ZM235.992 186.873C235.992 187.335 235.571 187.71 235.051 187.71C234.531 187.71 234.109 187.335 234.109 186.873C234.109 186.411 234.531 186.036 235.051 186.036C235.571 186.036 235.992 186.411 235.992 186.873ZM253.88 182.69C254.4 182.69 254.822 182.315 254.822 181.853C254.822 181.391 254.4 181.017 253.88 181.017C253.36 181.017 252.939 181.391 252.939 181.853C252.939 182.315 253.36 182.69 253.88 182.69Z" fill="white"/>
<path fill-rule="evenodd" clip-rule="evenodd" d="M234.403 193.528C231.593 191.543 229.498 188.357 230.726 185.808C231.955 183.259 237.223 181.567 240.695 179.113C244.168 176.659 246.287 171.703 249.545 170.75C252.804 169.796 256.734 171.084 259.199 173.18C261.664 175.276 263.861 177.736 262.262 180.648C260.663 183.559 255.45 184.34 252.238 187.09C249.027 189.839 246.763 194.446 243.955 195.398C241.146 196.35 237.213 195.513 234.403 193.528Z" stroke="white" stroke-width="2.5"/>
<path d="M230.293 193.651C230.293 193.651 231.523 197.482 234.715 199.413C237.907 201.343 240.179 202.045 243.665 201.08C247.152 200.115 248.869 195.422 251.739 193.257C256.186 189.902 263.31 188.085 262.807 184.119" stroke="white" stroke-width="2.5" stroke-linecap="round"/>
<path d="M359.771 144.873L352.169 126.075C351.716 124.954 352.344 123.653 353.531 123.251V123.251C354.587 122.893 355.713 123.379 356.125 124.37L357.805 128.404" stroke="white" stroke-width="2.5" stroke-linecap="round"/>
<path d="M357.874 128.562L354.853 121.211C354.393 120.093 355.018 118.787 356.207 118.384V118.384C357.259 118.028 358.381 118.511 358.794 119.499L361.174 125.199" stroke="white" stroke-width="2.5" stroke-linecap="round"/>
<path d="M360.51 123.413L358.73 119.084C358.271 117.967 358.896 116.664 360.083 116.261V116.261C361.136 115.904 362.259 116.39 362.668 117.38L365.687 124.679" stroke="white" stroke-width="2.5" stroke-linecap="round"/>
<path d="M364.389 121.374L363.245 118.591C362.786 117.475 363.41 116.173 364.596 115.771V115.771C365.649 115.414 366.773 115.903 367.18 116.894L379.933 147.993" stroke="white" stroke-width="2.5" stroke-linecap="round"/>
<path d="M369.859 141.773L361.873 131.499C361.084 130.484 361.29 129 362.337 128.161V128.161C363.231 127.445 364.484 127.412 365.36 128.08L369.618 131.33" stroke="white" stroke-width="2.5" stroke-linecap="round"/>
<path d="M374.166 125.825L379.724 120.097C380.488 119.31 381.709 119.191 382.558 119.823V119.823C383.537 120.552 383.636 121.977 382.771 122.902L376.552 129.552" stroke="white" stroke-width="2.5" stroke-linecap="round"/>
<path d="M382.056 123.766L382.562 123.245C383.314 122.47 384.517 122.355 385.35 122.979V122.979C386.31 123.698 386.402 125.099 385.55 126.005L379.899 132.008" stroke="white" stroke-width="2.5" stroke-linecap="round"/>
<path d="M382.743 128.988L383.246 128.47C384 127.693 385.205 127.578 386.039 128.203V128.203C386.999 128.922 387.093 130.322 386.244 131.229L379.521 138.411" stroke="white" stroke-width="2.5" stroke-linecap="round"/>
<path d="M372.52 121.554L375.914 118.14C376.646 117.403 377.799 117.297 378.603 117.892V117.892C379.544 118.588 379.641 119.956 378.812 120.842L376.65 123.154" stroke="white" stroke-width="2.5" stroke-linecap="round"/>
<path d="M12.6094 201.71C12.6094 201.71 17.0157 201.774 17.5489 198.361H37.4104L36.2134 208.839" stroke="white" stroke-width="2.5" stroke-linecap="round" stroke-linejoin="round"/>
<path d="M36.9746 203.551C36.9746 203.551 42.3226 209.254 38.6899 211.485C37.1856 212.409 34.0519 211.994 29.794 209.624C27.0754 208.111 20.1914 202.758 20.1914 202.758" stroke="white" stroke-width="2.5" stroke-linecap="round" stroke-linejoin="round"/>
<path d="M14.4414 201.675L16.5592 218.71H35.006L35.9026 211.97" stroke="white" stroke-width="2.5" stroke-linecap="round" stroke-linejoin="round"/>
<path d="M19.3729 196.032C19.3729 196.032 18.3296 192.778 21.0286 191.583C23.7275 190.387 26.3482 193.226 26.3482 193.226" stroke="white" stroke-width="2.5" stroke-linecap="round" stroke-linejoin="round"/>
<path d="M24.2656 191.498C24.2656 191.498 25.3492 188.907 27.8827 188.85C30.4162 188.793 31.4399 191.058 31.4399 191.058C31.4399 191.058 33.6856 190.257 35.0246 190.972C36.3635 191.687 36.2988 193.28 36.2988 193.28C36.2988 193.28 39.0605 193.568 39.4141 195.498C39.7676 197.429 37.5061 198.4 37.5061 198.4" stroke="white" stroke-width="2.5" stroke-linecap="round" stroke-linejoin="round"/>
<path d="M14.811 205.317C14.811 205.317 10.9945 206.51 9.52856 204.49C8.06265 202.47 10.2324 200.485 10.2324 200.485C10.2324 200.485 8.93434 198.497 9.83472 196.824C10.7351 195.152 13.3612 194.386 15.4393 195.477" stroke="white" stroke-width="2.5" stroke-linecap="round" stroke-linejoin="round"/>
<path d="M13.0516 194.907C13.0516 194.907 12.7473 192.705 14.0011 191.615C15.2549 190.525 17.4897 190.912 17.4897 190.912" stroke="white" stroke-width="2.5" stroke-linecap="round" stroke-linejoin="round"/>
<path fill-rule="evenodd" clip-rule="evenodd" d="M103.51 130.189C103.905 130.39 104.408 130.272 104.635 129.925C104.861 129.579 104.725 129.135 104.331 128.934C103.936 128.732 103.433 128.85 103.206 129.197C102.98 129.543 103.116 129.988 103.51 130.189ZM100.167 129.484C100.562 129.686 101.065 129.568 101.292 129.221C101.518 128.875 101.382 128.431 100.988 128.229C100.593 128.028 100.09 128.146 99.8631 128.493C99.6366 128.839 99.7727 129.283 100.167 129.484ZM98.8538 131.493C99.2483 131.694 99.7517 131.576 99.9782 131.229C100.205 130.883 100.069 130.439 99.6742 130.238C99.2797 130.036 98.7763 130.154 98.5497 130.501C98.3232 130.847 98.4594 131.291 98.8538 131.493ZM98.5764 133.363C98.3499 133.71 97.8465 133.827 97.452 133.626C97.0575 133.425 96.9214 132.981 97.1479 132.635C97.3744 132.288 97.8779 132.17 98.2723 132.371C98.6668 132.572 98.8029 133.016 98.5764 133.363ZM102.835 132.686C102.608 133.033 102.105 133.151 101.711 132.95C101.316 132.748 101.18 132.304 101.406 131.958C101.633 131.611 102.136 131.493 102.531 131.695C102.925 131.896 103.061 132.34 102.835 132.686ZM99.8179 135.836C100.212 136.038 100.716 135.92 100.942 135.573C101.169 135.227 101.033 134.782 100.638 134.581C100.244 134.38 99.7403 134.498 99.5138 134.845C99.2873 135.191 99.4234 135.635 99.8179 135.836Z" fill="white"/>
<path d="M82.582 128.39L86.5818 130.429" stroke="white" stroke-width="2.5" stroke-linecap="round"/>
<path d="M80.625 131.402L84.6248 133.442" stroke="white" stroke-width="2.5" stroke-linecap="round"/>
<path fill-rule="evenodd" clip-rule="evenodd" d="M80.4291 131.312L82.3301 128.404L79.2731 126.845L78.7605 124.919L83.2766 123.293C85.0355 122.66 86.9713 122.761 88.5555 123.569L96.0832 127.408C96.6331 127.688 96.8051 128.334 96.4674 128.851L95.626 130.138C95.3592 130.547 94.7907 130.698 94.3562 130.476V130.476C91.3151 128.925 87.3356 129.985 85.4679 132.842L84.465 134.377C83.218 136.285 82.8924 138.543 83.5695 140.588V140.588C84.2465 142.633 83.921 144.891 82.674 146.799L80.7096 149.805L68.3771 143.515C68.3771 143.515 71.0475 138.708 73.9015 135.819C76.7555 132.929 80.4291 131.312 80.4291 131.312Z" stroke="white" stroke-width="2.5" stroke-linecap="round" stroke-linejoin="round"/>
<path d="M93.717 126.867C91.2371 130.311 90.4445 132.937 91.3392 134.746" stroke="white" stroke-width="2.5" stroke-linecap="round"/>
<path d="M517.148 179.086L529.787 190.408L537.154 183.967L544.96 185.732L558.667 197.946L562.185 194.801L548.596 182.704L546.572 175.533L553.768 169.166L541.051 157.809" stroke="white" stroke-width="2.5" stroke-linecap="round" stroke-linejoin="round"/>
<path d="M525.051 185.537L548.57 164.785" stroke="white" stroke-width="2.5" stroke-linecap="round" stroke-linejoin="round"/>
<path d="M537.39 184.039L535.516 182.4L544.825 174.135L546.563 175.756" stroke="white" stroke-width="2.5" stroke-linecap="round" stroke-linejoin="round"/>
<path d="M545.109 185.934L548.55 182.943" stroke="white" stroke-width="2.5" stroke-linecap="round" stroke-linejoin="round"/>
<path d="M554.984 194.492L558.425 191.5" stroke="white" stroke-width="2.5" stroke-linecap="round" stroke-linejoin="round"/>
<path d="M550.281 190.317L553.722 187.325" stroke="white" stroke-width="2.5" stroke-linecap="round" stroke-linejoin="round"/>
<path d="M526.613 193.468L531.622 197.947" stroke="white" stroke-width="2.5" stroke-linecap="round" stroke-linejoin="round"/>
<path d="M533.434 193.468L538.442 197.947" stroke="white" stroke-width="2.5" stroke-linecap="round" stroke-linejoin="round"/>
<path d="M553.906 175.309L558.915 179.788" stroke="white" stroke-width="2.5" stroke-linecap="round" stroke-linejoin="round"/>
<path d="M553.906 163.203L558.915 167.682" stroke="white" stroke-width="2.5" stroke-linecap="round" stroke-linejoin="round"/>
<path d="M591.587 135.593L580.357 131.982C579.586 131.734 579.211 130.926 579.519 130.177V130.177C579.828 129.428 580.703 129.021 581.475 129.269L591.587 132.52C594.192 133.358 595.459 136.089 594.416 138.619V138.619C594.197 139.15 593.576 139.439 593.029 139.263L577.794 134.364" stroke="white" stroke-width="2.5" stroke-linecap="round"/>
<path d="M579.427 130.384L582.195 123.667C583.19 121.253 586.011 119.944 588.496 120.743L592.346 121.981C596.696 123.379 598.811 127.938 597.07 132.162L595.126 136.88" stroke="white" stroke-width="2.5"/>
<path fill-rule="evenodd" clip-rule="evenodd" d="M212.387 132.708C212.387 132.708 203.441 135.368 201.894 142.133C201.894 142.133 199.298 134.19 191.184 132.708C191.184 132.708 199.827 130.306 201.894 123.377C201.894 123.377 203.251 127.223 205.95 129.537C208.137 131.413 212.387 132.708 212.387 132.708Z" stroke="white" stroke-width="2.5" stroke-linecap="round" stroke-linejoin="round"/>
<path fill-rule="evenodd" clip-rule="evenodd" d="M498.457 126.856C498.457 126.856 490.611 129.185 489.254 135.11C489.254 135.11 486.978 128.153 479.861 126.856C479.861 126.856 487.442 124.752 489.254 118.683C489.254 118.683 490.445 122.052 492.812 124.079C494.73 125.722 498.457 126.856 498.457 126.856Z" stroke="white" stroke-width="2.5" stroke-linecap="round" stroke-linejoin="round"/>
<path fill-rule="evenodd" clip-rule="evenodd" d="M106.617 196.094C106.617 196.094 101.386 197.647 100.482 201.597C100.482 201.597 98.9642 196.959 94.2201 196.094C94.2201 196.094 99.2736 194.691 100.482 190.646C100.482 190.646 101.276 192.891 102.854 194.243C104.132 195.338 106.617 196.094 106.617 196.094Z" stroke="white" stroke-width="2.5" stroke-linecap="round" stroke-linejoin="round"/>
<path fill-rule="evenodd" clip-rule="evenodd" d="M376.254 201.964C376.254 201.964 371.77 203.295 370.995 206.68C370.995 206.68 369.694 202.705 365.628 201.964C365.628 201.964 369.959 200.762 370.995 197.294C370.995 197.294 371.675 199.219 373.028 200.377C374.124 201.316 376.254 201.964 376.254 201.964Z" stroke="white" stroke-width="2.5" stroke-linecap="round" stroke-linejoin="round"/>
<path fill-rule="evenodd" clip-rule="evenodd" d="M592.324 167.166C592.324 167.166 589.709 167.943 589.257 169.917C589.257 169.917 588.498 167.598 586.126 167.166C586.126 167.166 588.652 166.465 589.257 164.442C589.257 164.442 589.653 165.565 590.442 166.24C591.082 166.788 592.324 167.166 592.324 167.166Z" stroke="white" stroke-width="2.5" stroke-linecap="round" stroke-linejoin="round"/>
<path d="M272.211 129.972H274.759" stroke="white" stroke-width="3" stroke-linecap="round" stroke-linejoin="round"/>
<path d="M273.488 128.852V131.093" stroke="white" stroke-width="3" stroke-linecap="round" stroke-linejoin="round"/>
<path d="M436.031 129.972H438.579" stroke="white" stroke-width="3" stroke-linecap="round" stroke-linejoin="round"/>
<path d="M437.309 128.852V131.093" stroke="white" stroke-width="3" stroke-linecap="round" stroke-linejoin="round"/>
<path d="M603.387 149.492H607.633" stroke="white" stroke-width="3" stroke-linecap="round" stroke-linejoin="round"/>
<path d="M605.508 147.625V151.36" stroke="white" stroke-width="3" stroke-linecap="round" stroke-linejoin="round"/>
<path d="M542.297 126.062H544.845" stroke="white" stroke-width="3" stroke-linecap="round" stroke-linejoin="round"/>
<path d="M543.574 124.941V127.182" stroke="white" stroke-width="3" stroke-linecap="round" stroke-linejoin="round"/>
<path d="M496.688 203.837H501.783" stroke="white" stroke-width="3" stroke-linecap="round" stroke-linejoin="round"/>
<path d="M499.234 201.596V206.078" stroke="white" stroke-width="3" stroke-linecap="round" stroke-linejoin="round"/>
<path d="M329.773 192.548H332.321" stroke="white" stroke-width="3" stroke-linecap="round" stroke-linejoin="round"/>
<path d="M331.051 191.428V193.669" stroke="white" stroke-width="3" stroke-linecap="round" stroke-linejoin="round"/>
<path d="M174.363 200.353H177.76" stroke="white" stroke-width="3" stroke-linecap="round" stroke-linejoin="round"/>
<path d="M176.062 198.859V201.846" stroke="white" stroke-width="3" stroke-linecap="round" stroke-linejoin="round"/>
<path d="M143.805 141.706H146.352" stroke="white" stroke-width="3" stroke-linecap="round" stroke-linejoin="round"/>
<path d="M145.082 140.585V142.826" stroke="white" stroke-width="3" stroke-linecap="round" stroke-linejoin="round"/>
<path d="M14.0781 130.026H19.3912" stroke="white" stroke-width="3" stroke-linecap="round" stroke-linejoin="round"/>
<path d="M16.7344 127.679V132.372" stroke="white" stroke-width="3" stroke-linecap="round" stroke-linejoin="round"/>
<path d="M41.9766 165.171H44.5243" stroke="white" stroke-width="3" stroke-linecap="round" stroke-linejoin="round"/>
<path d="M43.2539 164.051V166.292" stroke="white" stroke-width="3" stroke-linecap="round" stroke-linejoin="round"/>
<ellipse cx="304.98" cy="129.091" rx="6.19854" ry="7.97438" stroke="white" stroke-width="2.5"/>
<path d="M302.229 129.586C302.229 129.586 301.057 131.212 301.604 132.664C302.151 134.116 303.408 134.69 303.408 134.69" stroke="white" stroke-width="2.5" stroke-linecap="round"/>
<ellipse cx="6.55644" cy="155.673" rx="4.42753" ry="5.64041" stroke="white" stroke-width="2.5"/>
<path d="M5.03463 156.023C5.03463 156.023 4.28336 157.279 4.58778 158.2C4.89221 159.121 5.79112 159.399 5.79112 159.399" stroke="white" stroke-width="2.5" stroke-linecap="round"/>
<ellipse cx="157.096" cy="214.729" rx="4.42753" ry="5.64041" stroke="white" stroke-width="2.5"/>
<path d="M155.574 215.079C155.574 215.079 154.822 216.334 155.127 217.255C155.431 218.177 156.33 218.455 156.33 218.455" stroke="white" stroke-width="2.5" stroke-linecap="round"/>
<ellipse cx="599.402" cy="193.026" rx="4.87028" ry="6.2239" stroke="white" stroke-width="2.5"/>
<path d="M597.238 193.413C597.238 193.413 596.316 194.682 596.746 195.815C597.176 196.948 598.164 197.396 598.164 197.396" stroke="white" stroke-width="2.5" stroke-linecap="round"/>
<path d="M432.625 191.595C436.214 191.595 435.693 193.749 439.117 193.749C442.54 193.749 442.653 191.595 446.304 191.595C449.954 191.595 450.09 193.749 453.708 193.749C457.326 193.749 457.191 191.595 460.788 191.595C464.385 191.595 464.564 193.749 468.087 193.749C471.611 193.749 471.287 191.595 474.898 191.595" stroke="white" stroke-width="2.5"/>
<path d="M432.625 197.797C436.214 197.797 435.693 199.95 439.117 199.95C442.54 199.95 442.653 197.797 446.304 197.797C449.954 197.797 450.09 199.95 453.708 199.95C457.326 199.95 457.191 197.797 460.788 197.797C464.385 197.797 464.564 199.95 468.087 199.95C471.611 199.95 471.287 197.797 474.898 197.797" stroke="white" stroke-width="2.5"/>
<path d="M432.625 203.653C436.214 203.653 435.693 205.807 439.117 205.807C442.54 205.807 442.653 203.653 446.304 203.653C449.954 203.653 450.09 205.807 453.708 205.807C457.326 205.807 457.191 203.653 460.788 203.653C464.385 203.653 464.564 205.807 468.087 205.807C471.611 205.807 471.287 203.653 474.898 203.653" stroke="white" stroke-width="2.5"/>
<path fill-rule="evenodd" clip-rule="evenodd" d="M377.161 281.61C377.161 282.072 376.739 282.446 376.219 282.446C375.699 282.446 375.278 282.072 375.278 281.61C375.278 281.147 375.699 280.773 376.219 280.773C376.739 280.773 377.161 281.147 377.161 281.61ZM381.119 283.115C381.639 283.115 382.06 282.741 382.06 282.279C382.06 281.817 381.639 281.442 381.119 281.442C380.599 281.442 380.177 281.817 380.177 282.279C380.177 282.741 380.599 283.115 381.119 283.115ZM384.507 285.457C384.507 286.104 383.917 286.629 383.189 286.629C382.461 286.629 381.871 286.104 381.871 285.457C381.871 284.811 382.461 284.286 383.189 284.286C383.917 284.286 384.507 284.811 384.507 285.457ZM373.96 287.298C374.688 287.298 375.278 286.773 375.278 286.127C375.278 285.48 374.688 284.955 373.96 284.955C373.232 284.955 372.642 285.48 372.642 286.127C372.642 286.773 373.232 287.298 373.96 287.298ZM368.503 290.477C369.231 290.477 369.821 289.953 369.821 289.306C369.821 288.659 369.231 288.135 368.503 288.135C367.775 288.135 367.185 288.659 367.185 289.306C367.185 289.953 367.775 290.477 368.503 290.477ZM363.984 297.839C364.712 297.839 365.302 297.314 365.302 296.668C365.302 296.021 364.712 295.496 363.984 295.496C363.256 295.496 362.666 296.021 362.666 296.668C362.666 297.314 363.256 297.839 363.984 297.839ZM372.643 294.158C372.643 294.805 372.052 295.33 371.324 295.33C370.597 295.33 370.006 294.805 370.006 294.158C370.006 293.512 370.597 292.987 371.324 292.987C372.052 292.987 372.643 293.512 372.643 294.158ZM373.769 291.146C374.289 291.146 374.711 290.772 374.711 290.31C374.711 289.848 374.289 289.473 373.769 289.473C373.249 289.473 372.828 289.848 372.828 290.31C372.828 290.772 373.249 291.146 373.769 291.146ZM368.122 292.82C368.122 293.282 367.7 293.656 367.18 293.656C366.66 293.656 366.239 293.282 366.239 292.82C366.239 292.358 366.66 291.983 367.18 291.983C367.7 291.983 368.122 292.358 368.122 292.82ZM369.254 298.341C369.774 298.341 370.196 297.966 370.196 297.504C370.196 297.042 369.774 296.668 369.254 296.668C368.734 296.668 368.313 297.042 368.313 297.504C368.313 297.966 368.734 298.341 369.254 298.341ZM361.723 293.824C361.723 294.286 361.301 294.66 360.781 294.66C360.261 294.66 359.84 294.286 359.84 293.824C359.84 293.362 360.261 292.987 360.781 292.987C361.301 292.987 361.723 293.362 361.723 293.824ZM379.611 289.64C380.131 289.64 380.552 289.266 380.552 288.804C380.552 288.342 380.131 287.967 379.611 287.967C379.091 287.967 378.669 288.342 378.669 288.804C378.669 289.266 379.091 289.64 379.611 289.64Z" fill="white"/>
<path fill-rule="evenodd" clip-rule="evenodd" d="M360.141 300.479C357.331 298.494 355.236 295.308 356.465 292.759C357.693 290.21 362.961 288.518 366.434 286.064C369.906 283.61 372.025 278.654 375.284 277.7C378.542 276.747 382.472 278.035 384.937 280.13C387.402 282.226 389.599 284.687 388 287.598C386.401 290.51 381.188 291.291 377.977 294.04C374.765 296.79 372.501 301.397 369.693 302.349C366.885 303.3 362.951 302.464 360.141 300.479Z" stroke="white" stroke-width="2.5"/>
<path d="M356.031 300.602C356.031 300.602 357.262 304.433 360.453 306.363C363.645 308.294 365.917 308.995 369.404 308.031C372.891 307.066 374.607 302.372 377.477 300.207C381.925 296.853 389.049 295.035 388.545 291.07" stroke="white" stroke-width="2.5" stroke-linecap="round"/>
<path d="M485.513 251.824L477.911 233.026C477.458 231.905 478.086 230.604 479.274 230.202V230.202C480.329 229.844 481.455 230.33 481.868 231.321L483.548 235.355" stroke="white" stroke-width="2.5" stroke-linecap="round"/>
<path d="M483.617 235.513L480.595 228.162C480.135 227.044 480.76 225.738 481.949 225.335V225.335C483.001 224.978 484.123 225.462 484.536 226.449L486.916 232.15" stroke="white" stroke-width="2.5" stroke-linecap="round"/>
<path d="M486.252 230.363L484.473 226.035C484.013 224.918 484.638 223.614 485.825 223.212V223.212C486.878 222.855 488.001 223.341 488.41 224.331L491.429 231.629" stroke="white" stroke-width="2.5" stroke-linecap="round"/>
<path d="M490.132 228.325L488.987 225.542C488.529 224.426 489.152 223.124 490.338 222.722V222.722C491.392 222.365 492.515 222.853 492.922 223.845L505.675 254.944" stroke="white" stroke-width="2.5" stroke-linecap="round"/>
<path d="M495.601 248.724L487.615 238.45C486.826 237.435 487.033 235.951 488.08 235.112V235.112C488.973 234.396 490.226 234.363 491.102 235.031L495.361 238.281" stroke="white" stroke-width="2.5" stroke-linecap="round"/>
<path d="M499.908 232.776L505.466 227.048C506.231 226.261 507.451 226.142 508.3 226.774V226.774C509.28 227.502 509.378 228.928 508.513 229.853L502.294 236.503" stroke="white" stroke-width="2.5" stroke-linecap="round"/>
<path d="M507.799 230.717L508.304 230.196C509.057 229.421 510.259 229.306 511.093 229.93V229.93C512.052 230.649 512.145 232.05 511.292 232.956L505.641 238.959" stroke="white" stroke-width="2.5" stroke-linecap="round"/>
<path d="M508.485 235.939L508.989 235.421C509.742 234.644 510.947 234.529 511.782 235.154V235.154C512.741 235.873 512.835 237.273 511.986 238.18L505.263 245.362" stroke="white" stroke-width="2.5" stroke-linecap="round"/>
<path d="M498.262 228.505L501.656 225.091C502.388 224.354 503.541 224.248 504.345 224.843V224.843C505.286 225.539 505.383 226.906 504.554 227.793L502.392 230.105" stroke="white" stroke-width="2.5" stroke-linecap="round"/>
<path d="M138.352 308.661C138.352 308.661 142.758 308.725 143.291 305.312H163.153L161.956 315.79" stroke="white" stroke-width="2.5" stroke-linecap="round" stroke-linejoin="round"/>
<path d="M162.717 310.502C162.717 310.502 168.065 316.205 164.432 318.436C162.928 319.36 159.794 318.945 155.536 316.575C152.818 315.062 145.934 309.709 145.934 309.709" stroke="white" stroke-width="2.5" stroke-linecap="round" stroke-linejoin="round"/>
<path d="M140.184 308.626L142.301 325.661H160.748L161.645 318.921" stroke="white" stroke-width="2.5" stroke-linecap="round" stroke-linejoin="round"/>
<path d="M145.115 302.983C145.115 302.983 144.072 299.729 146.771 298.533C149.47 297.338 152.09 300.177 152.09 300.177" stroke="white" stroke-width="2.5" stroke-linecap="round" stroke-linejoin="round"/>
<path d="M150.008 298.449C150.008 298.449 151.091 295.858 153.625 295.801C156.158 295.743 157.182 298.009 157.182 298.009C157.182 298.009 159.428 297.208 160.767 297.923C162.106 298.638 162.041 300.23 162.041 300.23C162.041 300.23 164.803 300.519 165.156 302.449C165.51 304.38 163.248 305.351 163.248 305.351" stroke="white" stroke-width="2.5" stroke-linecap="round" stroke-linejoin="round"/>
<path d="M140.553 312.268C140.553 312.268 136.737 313.461 135.271 311.441C133.805 309.421 135.975 307.436 135.975 307.436C135.975 307.436 134.677 305.448 135.577 303.775C136.477 302.103 139.103 301.337 141.182 302.428" stroke="white" stroke-width="2.5" stroke-linecap="round" stroke-linejoin="round"/>
<path d="M138.794 301.858C138.794 301.858 138.489 299.656 139.743 298.566C140.997 297.476 143.232 297.863 143.232 297.863" stroke="white" stroke-width="2.5" stroke-linecap="round" stroke-linejoin="round"/>
<path fill-rule="evenodd" clip-rule="evenodd" d="M229.233 237.139C229.627 237.341 230.131 237.223 230.357 236.876C230.584 236.53 230.448 236.086 230.053 235.884C229.659 235.683 229.155 235.801 228.929 236.148C228.702 236.494 228.839 236.938 229.233 237.139ZM225.89 236.435C226.284 236.636 226.788 236.519 227.014 236.172C227.241 235.825 227.105 235.381 226.71 235.18C226.316 234.979 225.812 235.097 225.586 235.443C225.359 235.79 225.495 236.234 225.89 236.435ZM224.576 238.443C224.971 238.645 225.474 238.527 225.701 238.18C225.927 237.834 225.791 237.39 225.397 237.188C225.002 236.987 224.499 237.105 224.272 237.452C224.046 237.798 224.182 238.242 224.576 238.443ZM224.299 240.314C224.073 240.66 223.569 240.778 223.175 240.577C222.78 240.376 222.644 239.932 222.871 239.585C223.097 239.239 223.601 239.121 223.995 239.322C224.389 239.523 224.526 239.967 224.299 240.314ZM228.558 239.637C228.331 239.984 227.828 240.102 227.433 239.9C227.039 239.699 226.903 239.255 227.129 238.909C227.356 238.562 227.859 238.444 228.254 238.645C228.648 238.847 228.784 239.291 228.558 239.637ZM225.541 242.787C225.935 242.988 226.438 242.87 226.665 242.524C226.891 242.177 226.755 241.733 226.361 241.532C225.966 241.331 225.463 241.449 225.236 241.795C225.01 242.142 225.146 242.586 225.541 242.787Z" fill="white"/>
<path d="M208.324 235.341L212.324 237.38" stroke="white" stroke-width="2.5" stroke-linecap="round"/>
<path d="M206.359 238.353L210.359 240.393" stroke="white" stroke-width="2.5" stroke-linecap="round"/>
<path fill-rule="evenodd" clip-rule="evenodd" d="M206.171 238.263L208.072 235.354L205.015 233.795L204.503 231.87L209.019 230.244C210.778 229.61 212.714 229.711 214.298 230.519L221.825 234.358C222.375 234.639 222.547 235.285 222.21 235.802L221.368 237.089C221.101 237.497 220.533 237.649 220.098 237.427V237.427C217.057 235.876 213.078 236.935 211.21 239.793L210.207 241.327C208.96 243.235 208.635 245.493 209.312 247.539V247.539C209.989 249.584 209.663 251.842 208.416 253.75L206.452 256.755L194.119 250.466C194.119 250.466 196.79 245.659 199.644 242.769C202.498 239.879 206.171 238.263 206.171 238.263Z" stroke="white" stroke-width="2.5" stroke-linecap="round" stroke-linejoin="round"/>
<path d="M219.455 233.818C216.975 237.262 216.183 239.888 217.078 241.697" stroke="white" stroke-width="2.5" stroke-linecap="round"/>
<path d="M642.887 286.037L655.525 297.359L662.892 290.918L670.698 292.683L684.405 304.897L687.923 301.752L674.335 289.655L672.31 282.483L679.506 276.117L666.79 264.76" stroke="white" stroke-width="2.5" stroke-linecap="round" stroke-linejoin="round"/>
<path d="M650.789 292.488L674.308 271.736" stroke="white" stroke-width="2.5" stroke-linecap="round" stroke-linejoin="round"/>
<path d="M663.128 290.99L661.254 289.351L670.563 281.087L672.302 282.707" stroke="white" stroke-width="2.5" stroke-linecap="round" stroke-linejoin="round"/>
<path d="M670.848 292.885L674.288 289.893" stroke="white" stroke-width="2.5" stroke-linecap="round" stroke-linejoin="round"/>
<path d="M680.723 301.443L684.163 298.451" stroke="white" stroke-width="2.5" stroke-linecap="round" stroke-linejoin="round"/>
<path d="M676.02 297.268L679.46 294.276" stroke="white" stroke-width="2.5" stroke-linecap="round" stroke-linejoin="round"/>
<path d="M652.352 300.418L657.36 304.897" stroke="white" stroke-width="2.5" stroke-linecap="round" stroke-linejoin="round"/>
<path d="M659.172 300.418L664.181 304.897" stroke="white" stroke-width="2.5" stroke-linecap="round" stroke-linejoin="round"/>
<path d="M679.645 282.26L684.653 286.739" stroke="white" stroke-width="2.5" stroke-linecap="round" stroke-linejoin="round"/>
<path d="M679.645 270.154L684.653 274.633" stroke="white" stroke-width="2.5" stroke-linecap="round" stroke-linejoin="round"/>
<path d="M717.326 242.543L706.095 238.933C705.324 238.685 704.949 237.876 705.257 237.127V237.127C705.566 236.378 706.442 235.972 707.213 236.22L717.325 239.471C719.93 240.308 721.197 243.039 720.155 245.569V245.569C719.936 246.101 719.315 246.389 718.767 246.213L703.532 241.315" stroke="white" stroke-width="2.5" stroke-linecap="round"/>
<path d="M705.166 237.334L707.933 230.617C708.928 228.203 711.749 226.894 714.235 227.693L718.085 228.931C722.434 230.33 724.549 234.888 722.809 239.112L720.865 243.831" stroke="white" stroke-width="2.5"/>
<path fill-rule="evenodd" clip-rule="evenodd" d="M338.129 239.659C338.129 239.659 329.183 242.319 327.636 249.083C327.636 249.083 325.04 241.14 316.926 239.659C316.926 239.659 325.569 237.256 327.636 230.327C327.636 230.327 328.993 234.173 331.692 236.488C333.879 238.364 338.129 239.659 338.129 239.659Z" stroke="white" stroke-width="2.5" stroke-linecap="round" stroke-linejoin="round"/>
<path fill-rule="evenodd" clip-rule="evenodd" d="M624.199 233.807C624.199 233.807 616.353 236.136 614.997 242.06C614.997 242.06 612.72 235.104 605.604 233.807C605.604 233.807 613.184 231.702 614.997 225.634C614.997 225.634 616.187 229.002 618.554 231.029C620.472 232.672 624.199 233.807 624.199 233.807Z" stroke="white" stroke-width="2.5" stroke-linecap="round" stroke-linejoin="round"/>
<path fill-rule="evenodd" clip-rule="evenodd" d="M232.359 303.045C232.359 303.045 227.129 304.598 226.224 308.547C226.224 308.547 224.706 303.91 219.962 303.045C219.962 303.045 225.016 301.642 226.224 297.596C226.224 297.596 227.018 299.842 228.596 301.193C229.875 302.289 232.359 303.045 232.359 303.045Z" stroke="white" stroke-width="2.5" stroke-linecap="round" stroke-linejoin="round"/>
<path fill-rule="evenodd" clip-rule="evenodd" d="M501.996 308.915C501.996 308.915 497.513 310.246 496.738 313.631C496.738 313.631 495.436 309.656 491.37 308.915C491.37 308.915 495.702 307.713 496.738 304.245C496.738 304.245 497.418 306.17 498.77 307.328C499.866 308.267 501.996 308.915 501.996 308.915Z" stroke="white" stroke-width="2.5" stroke-linecap="round" stroke-linejoin="round"/>
<path fill-rule="evenodd" clip-rule="evenodd" d="M718.062 274.117C718.062 274.117 715.447 274.894 714.995 276.868C714.995 276.868 714.236 274.55 711.864 274.117C711.864 274.117 714.391 273.416 714.995 271.393C714.995 271.393 715.392 272.516 716.181 273.191C716.82 273.739 718.062 274.117 718.062 274.117Z" stroke="white" stroke-width="2.5" stroke-linecap="round" stroke-linejoin="round"/>
<path d="M397.953 236.922H400.501" stroke="white" stroke-width="3" stroke-linecap="round" stroke-linejoin="round"/>
<path d="M399.227 235.802V238.043" stroke="white" stroke-width="3" stroke-linecap="round" stroke-linejoin="round"/>
<path d="M561.77 236.922H564.317" stroke="white" stroke-width="3" stroke-linecap="round" stroke-linejoin="round"/>
<path d="M563.047 235.802V238.043" stroke="white" stroke-width="3" stroke-linecap="round" stroke-linejoin="round"/>
<path d="M729.121 256.443H733.367" stroke="white" stroke-width="3" stroke-linecap="round" stroke-linejoin="round"/>
<path d="M731.242 254.575V258.31" stroke="white" stroke-width="3" stroke-linecap="round" stroke-linejoin="round"/>
<path d="M668.031 233.012H670.579" stroke="white" stroke-width="3" stroke-linecap="round" stroke-linejoin="round"/>
<path d="M669.309 231.891V234.132" stroke="white" stroke-width="3" stroke-linecap="round" stroke-linejoin="round"/>
<path d="M622.426 310.788H627.521" stroke="white" stroke-width="3" stroke-linecap="round" stroke-linejoin="round"/>
<path d="M624.973 308.547V313.029" stroke="white" stroke-width="3" stroke-linecap="round" stroke-linejoin="round"/>
<path d="M455.504 299.499H458.052" stroke="white" stroke-width="3" stroke-linecap="round" stroke-linejoin="round"/>
<path d="M456.781 298.378V300.619" stroke="white" stroke-width="3" stroke-linecap="round" stroke-linejoin="round"/>
<path d="M300.098 307.304H303.495" stroke="white" stroke-width="3" stroke-linecap="round" stroke-linejoin="round"/>
<path d="M301.797 305.81V308.798" stroke="white" stroke-width="3" stroke-linecap="round" stroke-linejoin="round"/>
<path d="M269.551 248.656H272.099" stroke="white" stroke-width="3" stroke-linecap="round" stroke-linejoin="round"/>
<path d="M270.828 247.536V249.776" stroke="white" stroke-width="3" stroke-linecap="round" stroke-linejoin="round"/>
<path d="M139.832 236.976H145.145" stroke="white" stroke-width="3" stroke-linecap="round" stroke-linejoin="round"/>
<path d="M142.488 234.63V239.323" stroke="white" stroke-width="3" stroke-linecap="round" stroke-linejoin="round"/>
<path d="M167.723 272.122H170.27" stroke="white" stroke-width="3" stroke-linecap="round" stroke-linejoin="round"/>
<path d="M169 271.002V273.243" stroke="white" stroke-width="3" stroke-linecap="round" stroke-linejoin="round"/>
<ellipse cx="430.718" cy="236.041" rx="6.19854" ry="7.97438" stroke="white" stroke-width="2.5"/>
<path d="M427.968 236.537C427.968 236.537 426.795 238.162 427.342 239.614C427.889 241.066 429.147 241.64 429.147 241.64" stroke="white" stroke-width="2.5" stroke-linecap="round"/>
<ellipse cx="132.295" cy="262.623" rx="4.42753" ry="5.64041" stroke="white" stroke-width="2.5"/>
<path d="M130.773 262.974C130.773 262.974 130.022 264.229 130.326 265.151C130.63 266.072 131.529 266.35 131.529 266.35" stroke="white" stroke-width="2.5" stroke-linecap="round"/>
<ellipse cx="282.834" cy="321.68" rx="4.42753" ry="5.64041" stroke="white" stroke-width="2.5"/>
<path d="M281.312 322.03C281.312 322.03 280.561 323.286 280.865 324.207C281.17 325.128 282.068 325.406 282.068 325.406" stroke="white" stroke-width="2.5" stroke-linecap="round"/>
<ellipse cx="725.152" cy="299.976" rx="4.87028" ry="6.2239" stroke="white" stroke-width="2.5"/>
<path d="M722.988 300.363C722.988 300.363 722.066 301.632 722.496 302.765C722.926 303.898 723.914 304.346 723.914 304.346" stroke="white" stroke-width="2.5" stroke-linecap="round"/>
<path d="M558.359 298.546C561.949 298.546 561.428 300.7 564.851 300.7C568.275 300.7 568.388 298.546 572.038 298.546C575.688 298.546 575.825 300.7 579.443 300.7C583.061 300.7 582.925 298.546 586.522 298.546C590.119 298.546 590.298 300.7 593.822 300.7C597.345 300.7 597.021 298.546 600.632 298.546" stroke="white" stroke-width="2.5"/>
<path d="M558.359 304.748C561.949 304.748 561.428 306.901 564.851 306.901C568.275 306.901 568.388 304.748 572.038 304.748C575.688 304.748 575.825 306.901 579.443 306.901C583.061 306.901 582.925 304.748 586.522 304.748C590.119 304.748 590.298 306.901 593.822 306.901C597.345 306.901 597.021 304.748 600.632 304.748" stroke="white" stroke-width="2.5"/>
<path d="M558.359 310.604C561.949 310.604 561.428 312.758 564.851 312.758C568.275 312.758 568.388 310.604 572.038 310.604C575.688 310.604 575.825 312.758 579.443 312.758C583.061 312.758 582.925 310.604 586.522 310.604C590.119 310.604 590.298 312.758 593.822 312.758C597.345 312.758 597.021 310.604 600.632 310.604" stroke="white" stroke-width="2.5"/>
<path fill-rule="evenodd" clip-rule="evenodd" d="M377.161 392.29C377.161 392.752 376.739 393.127 376.219 393.127C375.699 393.127 375.278 392.752 375.278 392.29C375.278 391.828 375.699 391.453 376.219 391.453C376.739 391.453 377.161 391.828 377.161 392.29ZM381.119 393.796C381.639 393.796 382.06 393.421 382.06 392.959C382.06 392.497 381.639 392.123 381.119 392.123C380.599 392.123 380.177 392.497 380.177 392.959C380.177 393.421 380.599 393.796 381.119 393.796ZM384.507 396.138C384.507 396.785 383.917 397.309 383.189 397.309C382.461 397.309 381.871 396.785 381.871 396.138C381.871 395.491 382.461 394.967 383.189 394.967C383.917 394.967 384.507 395.491 384.507 396.138ZM373.96 397.978C374.688 397.978 375.278 397.454 375.278 396.807C375.278 396.16 374.688 395.636 373.96 395.636C373.232 395.636 372.642 396.16 372.642 396.807C372.642 397.454 373.232 397.978 373.96 397.978ZM368.503 401.158C369.231 401.158 369.821 400.633 369.821 399.986C369.821 399.34 369.231 398.815 368.503 398.815C367.775 398.815 367.185 399.34 367.185 399.986C367.185 400.633 367.775 401.158 368.503 401.158ZM363.984 408.519C364.712 408.519 365.302 407.995 365.302 407.348C365.302 406.701 364.712 406.177 363.984 406.177C363.256 406.177 362.666 406.701 362.666 407.348C362.666 407.995 363.256 408.519 363.984 408.519ZM372.643 404.839C372.643 405.486 372.052 406.01 371.324 406.01C370.597 406.01 370.006 405.486 370.006 404.839C370.006 404.192 370.597 403.668 371.324 403.668C372.052 403.668 372.643 404.192 372.643 404.839ZM373.769 401.827C374.289 401.827 374.711 401.452 374.711 400.99C374.711 400.528 374.289 400.154 373.769 400.154C373.249 400.154 372.828 400.528 372.828 400.99C372.828 401.452 373.249 401.827 373.769 401.827ZM368.122 403.5C368.122 403.962 367.7 404.337 367.18 404.337C366.66 404.337 366.239 403.962 366.239 403.5C366.239 403.038 366.66 402.664 367.18 402.664C367.7 402.664 368.122 403.038 368.122 403.5ZM369.254 409.022C369.774 409.022 370.196 408.647 370.196 408.185C370.196 407.723 369.774 407.348 369.254 407.348C368.734 407.348 368.313 407.723 368.313 408.185C368.313 408.647 368.734 409.022 369.254 409.022ZM361.723 404.504C361.723 404.966 361.301 405.341 360.781 405.341C360.261 405.341 359.84 404.966 359.84 404.504C359.84 404.042 360.261 403.668 360.781 403.668C361.301 403.668 361.723 404.042 361.723 404.504ZM379.611 400.321C380.131 400.321 380.552 399.946 380.552 399.484C380.552 399.022 380.131 398.648 379.611 398.648C379.091 398.648 378.669 399.022 378.669 399.484C378.669 399.946 379.091 400.321 379.611 400.321Z" fill="white"/>
<path fill-rule="evenodd" clip-rule="evenodd" d="M360.141 411.159C357.331 409.174 355.236 405.988 356.465 403.439C357.693 400.89 362.961 399.198 366.434 396.744C369.906 394.29 372.025 389.335 375.284 388.381C378.542 387.427 382.472 388.715 384.937 390.811C387.402 392.907 389.599 395.367 388 398.279C386.401 401.19 381.188 401.971 377.977 404.721C374.765 407.47 372.501 412.078 369.693 413.029C366.885 413.981 362.951 413.145 360.141 411.159Z" stroke="white" stroke-width="2.5"/>
<path d="M356.031 411.282C356.031 411.282 357.262 415.113 360.453 417.044C363.645 418.974 365.917 419.676 369.404 418.711C372.891 417.746 374.607 413.053 377.477 410.888C381.925 407.533 389.049 405.716 388.545 401.75" stroke="white" stroke-width="2.5" stroke-linecap="round"/>
<path d="M485.513 362.505L477.911 343.706C477.458 342.586 478.086 341.285 479.274 340.882V340.882C480.329 340.524 481.455 341.01 481.868 342.001L483.548 346.035" stroke="white" stroke-width="2.5" stroke-linecap="round"/>
<path d="M483.617 346.193L480.595 338.843C480.135 337.724 480.76 336.418 481.949 336.015V336.015C483.001 335.659 484.123 336.142 484.536 337.13L486.916 342.831" stroke="white" stroke-width="2.5" stroke-linecap="round"/>
<path d="M486.252 341.044L484.473 336.716C484.013 335.598 484.638 334.295 485.825 333.892V333.892C486.878 333.536 488.001 334.022 488.41 335.011L491.429 342.31" stroke="white" stroke-width="2.5" stroke-linecap="round"/>
<path d="M490.132 339.006L488.987 336.222C488.529 335.106 489.152 333.805 490.338 333.403V333.403C491.392 333.046 492.515 333.534 492.922 334.526L505.675 365.625" stroke="white" stroke-width="2.5" stroke-linecap="round"/>
<path d="M495.601 359.404L487.615 349.131C486.826 348.115 487.033 346.631 488.08 345.793V345.793C488.973 345.077 490.226 345.043 491.102 345.712L495.361 348.962" stroke="white" stroke-width="2.5" stroke-linecap="round"/>
<path d="M499.908 343.456L505.466 337.729C506.231 336.941 507.451 336.823 508.3 337.454V337.454C509.28 338.183 509.378 339.609 508.513 340.533L502.294 347.184" stroke="white" stroke-width="2.5" stroke-linecap="round"/>
<path d="M507.799 341.397L508.304 340.876C509.057 340.101 510.259 339.986 511.093 340.611V340.611C512.052 341.329 512.145 342.731 511.292 343.636L505.641 349.639" stroke="white" stroke-width="2.5" stroke-linecap="round"/>
<path d="M508.485 346.62L508.989 346.101C509.742 345.324 510.947 345.21 511.782 345.835V345.835C512.741 346.553 512.835 347.953 511.986 348.861L505.263 356.043" stroke="white" stroke-width="2.5" stroke-linecap="round"/>
<path d="M498.262 339.185L501.656 335.771C502.388 335.035 503.541 334.929 504.345 335.524V335.524C505.286 336.22 505.383 337.587 504.554 338.473L502.392 340.785" stroke="white" stroke-width="2.5" stroke-linecap="round"/>
<path d="M138.352 419.342C138.352 419.342 142.758 419.405 143.291 415.992H163.153L161.956 426.47" stroke="white" stroke-width="2.5" stroke-linecap="round" stroke-linejoin="round"/>
<path d="M162.717 421.182C162.717 421.182 168.065 426.885 164.432 429.116C162.928 430.04 159.794 429.625 155.536 427.256C152.818 425.743 145.934 420.389 145.934 420.389" stroke="white" stroke-width="2.5" stroke-linecap="round" stroke-linejoin="round"/>
<path d="M140.184 419.306L142.301 436.341H160.748L161.645 429.601" stroke="white" stroke-width="2.5" stroke-linecap="round" stroke-linejoin="round"/>
<path d="M145.115 413.663C145.115 413.663 144.072 410.409 146.771 409.214C149.47 408.019 152.09 410.857 152.09 410.857" stroke="white" stroke-width="2.5" stroke-linecap="round" stroke-linejoin="round"/>
<path d="M150.008 409.13C150.008 409.13 151.091 406.538 153.625 406.481C156.158 406.424 157.182 408.689 157.182 408.689C157.182 408.689 159.428 407.889 160.767 408.603C162.106 409.318 162.041 410.911 162.041 410.911C162.041 410.911 164.803 411.199 165.156 413.13C165.51 415.06 163.248 416.031 163.248 416.031" stroke="white" stroke-width="2.5" stroke-linecap="round" stroke-linejoin="round"/>
<path d="M140.553 422.949C140.553 422.949 136.737 424.141 135.271 422.121C133.805 420.101 135.975 418.117 135.975 418.117C135.975 418.117 134.677 416.128 135.577 414.455C136.477 412.783 139.103 412.017 141.182 413.108" stroke="white" stroke-width="2.5" stroke-linecap="round" stroke-linejoin="round"/>
<path d="M138.794 412.538C138.794 412.538 138.489 410.336 139.743 409.247C140.997 408.157 143.232 408.543 143.232 408.543" stroke="white" stroke-width="2.5" stroke-linecap="round" stroke-linejoin="round"/>
<path fill-rule="evenodd" clip-rule="evenodd" d="M229.233 347.82C229.627 348.021 230.131 347.903 230.357 347.557C230.584 347.21 230.448 346.766 230.053 346.565C229.659 346.364 229.155 346.482 228.929 346.828C228.702 347.175 228.839 347.619 229.233 347.82ZM225.89 347.116C226.284 347.317 226.788 347.199 227.014 346.853C227.241 346.506 227.105 346.062 226.71 345.861C226.316 345.66 225.812 345.778 225.586 346.124C225.359 346.471 225.495 346.915 225.89 347.116ZM224.576 349.124C224.971 349.325 225.474 349.207 225.701 348.861C225.927 348.514 225.791 348.07 225.397 347.869C225.002 347.668 224.499 347.786 224.272 348.132C224.046 348.479 224.182 348.923 224.576 349.124ZM224.299 350.994C224.073 351.341 223.569 351.459 223.175 351.258C222.78 351.057 222.644 350.613 222.871 350.266C223.097 349.919 223.601 349.802 223.995 350.003C224.389 350.204 224.526 350.648 224.299 350.994ZM228.558 350.318C228.331 350.664 227.828 350.782 227.433 350.581C227.039 350.38 226.903 349.936 227.129 349.589C227.356 349.243 227.859 349.125 228.254 349.326C228.648 349.527 228.784 349.971 228.558 350.318ZM225.541 353.468C225.935 353.669 226.438 353.551 226.665 353.205C226.891 352.858 226.755 352.414 226.361 352.213C225.966 352.012 225.463 352.129 225.236 352.476C225.01 352.823 225.146 353.267 225.541 353.468Z" fill="white"/>
<path d="M208.328 346.021L212.328 348.061" stroke="white" stroke-width="2.5" stroke-linecap="round"/>
<path d="M206.359 349.034L210.359 351.073" stroke="white" stroke-width="2.5" stroke-linecap="round"/>
<path fill-rule="evenodd" clip-rule="evenodd" d="M206.171 348.943L208.072 346.035L205.015 344.476L204.503 342.55L209.019 340.924C210.778 340.291 212.714 340.392 214.298 341.2L221.825 345.039C222.375 345.319 222.547 345.965 222.21 346.482L221.368 347.77C221.101 348.178 220.533 348.329 220.098 348.108V348.108C217.057 346.557 213.078 347.616 211.21 350.473L210.207 352.008C208.96 353.916 208.635 356.174 209.312 358.219V358.219C209.989 360.264 209.663 362.523 208.416 364.43L206.452 367.436L194.119 361.146C194.119 361.146 196.79 356.339 199.644 353.45C202.498 350.56 206.171 348.943 206.171 348.943Z" stroke="white" stroke-width="2.5" stroke-linecap="round" stroke-linejoin="round"/>
<path d="M219.455 344.498C216.975 347.942 216.183 350.569 217.078 352.378" stroke="white" stroke-width="2.5" stroke-linecap="round"/>
<path d="M642.887 396.717L655.525 408.04L662.892 401.598L670.698 403.363L684.405 415.577L687.923 412.432L674.335 400.335L672.31 393.164L679.506 386.798L666.79 375.44" stroke="white" stroke-width="2.5" stroke-linecap="round" stroke-linejoin="round"/>
<path d="M650.789 403.169L674.308 382.417" stroke="white" stroke-width="2.5" stroke-linecap="round" stroke-linejoin="round"/>
<path d="M663.128 401.671L661.254 400.031L670.563 391.767L672.302 393.387" stroke="white" stroke-width="2.5" stroke-linecap="round" stroke-linejoin="round"/>
<path d="M670.848 403.565L674.288 400.574" stroke="white" stroke-width="2.5" stroke-linecap="round" stroke-linejoin="round"/>
<path d="M680.723 412.123L684.163 409.132" stroke="white" stroke-width="2.5" stroke-linecap="round" stroke-linejoin="round"/>
<path d="M676.02 407.948L679.46 404.957" stroke="white" stroke-width="2.5" stroke-linecap="round" stroke-linejoin="round"/>
<path d="M652.352 411.099L657.36 415.578" stroke="white" stroke-width="2.5" stroke-linecap="round" stroke-linejoin="round"/>
<path d="M659.172 411.099L664.181 415.578" stroke="white" stroke-width="2.5" stroke-linecap="round" stroke-linejoin="round"/>
<path d="M679.645 392.94L684.653 397.419" stroke="white" stroke-width="2.5" stroke-linecap="round" stroke-linejoin="round"/>
<path d="M679.645 380.834L684.653 385.313" stroke="white" stroke-width="2.5" stroke-linecap="round" stroke-linejoin="round"/>
<path d="M717.326 353.224L706.095 349.613C705.324 349.365 704.949 348.557 705.257 347.808V347.808C705.566 347.059 706.442 346.652 707.213 346.9L717.325 350.151C719.93 350.989 721.197 353.719 720.155 356.25V356.25C719.936 356.781 719.315 357.069 718.767 356.893L703.532 351.995" stroke="white" stroke-width="2.5" stroke-linecap="round"/>
<path d="M705.166 348.015L707.933 341.298C708.928 338.884 711.749 337.575 714.235 338.374L718.085 339.612C722.434 341.01 724.549 345.569 722.809 349.793L720.865 354.511" stroke="white" stroke-width="2.5"/>
<path fill-rule="evenodd" clip-rule="evenodd" d="M338.129 350.339C338.129 350.339 329.183 352.999 327.636 359.764C327.636 359.764 325.04 351.821 316.926 350.339C316.926 350.339 325.569 347.937 327.636 341.008C327.636 341.008 328.993 344.854 331.692 347.168C333.879 349.044 338.129 350.339 338.129 350.339Z" stroke="white" stroke-width="2.5" stroke-linecap="round" stroke-linejoin="round"/>
<path fill-rule="evenodd" clip-rule="evenodd" d="M624.199 344.487C624.199 344.487 616.353 346.816 614.997 352.741C614.997 352.741 612.72 345.784 605.604 344.487C605.604 344.487 613.184 342.383 614.997 336.314C614.997 336.314 616.187 339.683 618.554 341.71C620.472 343.353 624.199 344.487 624.199 344.487Z" stroke="white" stroke-width="2.5" stroke-linecap="round" stroke-linejoin="round"/>
<path fill-rule="evenodd" clip-rule="evenodd" d="M232.359 413.725C232.359 413.725 227.129 415.278 226.224 419.227C226.224 419.227 224.706 414.59 219.962 413.725C219.962 413.725 225.016 412.322 226.224 408.277C226.224 408.277 227.018 410.522 228.596 411.874C229.875 412.969 232.359 413.725 232.359 413.725Z" stroke="white" stroke-width="2.5" stroke-linecap="round" stroke-linejoin="round"/>
<path fill-rule="evenodd" clip-rule="evenodd" d="M501.996 419.596C501.996 419.596 497.513 420.927 496.738 424.312C496.738 424.312 495.436 420.337 491.37 419.596C491.37 419.596 495.702 418.393 496.738 414.926C496.738 414.926 497.418 416.85 498.77 418.009C499.866 418.948 501.996 419.596 501.996 419.596Z" stroke="white" stroke-width="2.5" stroke-linecap="round" stroke-linejoin="round"/>
<path fill-rule="evenodd" clip-rule="evenodd" d="M718.062 384.797C718.062 384.797 715.447 385.574 714.995 387.549C714.995 387.549 714.236 385.23 711.864 384.797C711.864 384.797 714.391 384.096 714.995 382.073C714.995 382.073 715.392 383.196 716.181 383.872C716.82 384.419 718.062 384.797 718.062 384.797Z" stroke="white" stroke-width="2.5" stroke-linecap="round" stroke-linejoin="round"/>
<path d="M397.953 347.603H400.501" stroke="white" stroke-width="3" stroke-linecap="round" stroke-linejoin="round"/>
<path d="M399.227 346.483V348.724" stroke="white" stroke-width="3" stroke-linecap="round" stroke-linejoin="round"/>
<path d="M561.77 347.603H564.317" stroke="white" stroke-width="3" stroke-linecap="round" stroke-linejoin="round"/>
<path d="M563.047 346.483V348.724" stroke="white" stroke-width="3" stroke-linecap="round" stroke-linejoin="round"/>
<path d="M729.121 367.123H733.367" stroke="white" stroke-width="3" stroke-linecap="round" stroke-linejoin="round"/>
<path d="M731.242 365.256V368.991" stroke="white" stroke-width="3" stroke-linecap="round" stroke-linejoin="round"/>
<path d="M668.031 343.693H670.579" stroke="white" stroke-width="3" stroke-linecap="round" stroke-linejoin="round"/>
<path d="M669.309 342.573V344.814" stroke="white" stroke-width="3" stroke-linecap="round" stroke-linejoin="round"/>
<path d="M622.426 421.469H627.521" stroke="white" stroke-width="3" stroke-linecap="round" stroke-linejoin="round"/>
<path d="M624.973 419.228V423.71" stroke="white" stroke-width="3" stroke-linecap="round" stroke-linejoin="round"/>
<path d="M455.504 410.18H458.052" stroke="white" stroke-width="3" stroke-linecap="round" stroke-linejoin="round"/>
<path d="M456.781 409.059V411.3" stroke="white" stroke-width="3" stroke-linecap="round" stroke-linejoin="round"/>
<path d="M300.098 417.984H303.495" stroke="white" stroke-width="3" stroke-linecap="round" stroke-linejoin="round"/>
<path d="M301.797 416.49V419.478" stroke="white" stroke-width="3" stroke-linecap="round" stroke-linejoin="round"/>
<path d="M269.551 359.337H272.099" stroke="white" stroke-width="3" stroke-linecap="round" stroke-linejoin="round"/>
<path d="M270.828 358.216V360.457" stroke="white" stroke-width="3" stroke-linecap="round" stroke-linejoin="round"/>
<path d="M139.832 347.657H145.145" stroke="white" stroke-width="3" stroke-linecap="round" stroke-linejoin="round"/>
<path d="M142.488 345.31V350.003" stroke="white" stroke-width="3" stroke-linecap="round" stroke-linejoin="round"/>
<path d="M167.723 382.802H170.27" stroke="white" stroke-width="3" stroke-linecap="round" stroke-linejoin="round"/>
<path d="M169 381.682V383.923" stroke="white" stroke-width="3" stroke-linecap="round" stroke-linejoin="round"/>
<ellipse cx="430.718" cy="346.722" rx="6.19854" ry="7.97438" stroke="white" stroke-width="2.5"/>
<path d="M427.968 347.217C427.968 347.217 426.795 348.843 427.342 350.295C427.889 351.747 429.147 352.321 429.147 352.321" stroke="white" stroke-width="2.5" stroke-linecap="round"/>
<ellipse cx="132.295" cy="373.304" rx="4.42753" ry="5.64041" stroke="white" stroke-width="2.5"/>
<path d="M130.773 373.655C130.773 373.655 130.022 374.91 130.326 375.832C130.63 376.753 131.529 377.031 131.529 377.031" stroke="white" stroke-width="2.5" stroke-linecap="round"/>
<ellipse cx="282.834" cy="432.359" rx="4.42753" ry="5.64041" stroke="white" stroke-width="2.5"/>
<path d="M281.312 432.71C281.312 432.71 280.561 433.965 280.865 434.887C281.17 435.808 282.068 436.086 282.068 436.086" stroke="white" stroke-width="2.5" stroke-linecap="round"/>
<ellipse cx="725.152" cy="410.657" rx="4.87028" ry="6.2239" stroke="white" stroke-width="2.5"/>
<path d="M722.988 411.044C722.988 411.044 722.066 412.312 722.496 413.446C722.926 414.579 723.914 415.027 723.914 415.027" stroke="white" stroke-width="2.5" stroke-linecap="round"/>
<path d="M558.359 409.226C561.949 409.226 561.428 411.38 564.851 411.38C568.275 411.38 568.388 409.226 572.038 409.226C575.688 409.226 575.825 411.38 579.443 411.38C583.061 411.38 582.925 409.226 586.522 409.226C590.119 409.226 590.298 411.38 593.822 411.38C597.345 411.38 597.021 409.226 600.632 409.226" stroke="white" stroke-width="2.5"/>
<path d="M558.359 415.428C561.949 415.428 561.428 417.582 564.851 417.582C568.275 417.582 568.388 415.428 572.038 415.428C575.688 415.428 575.825 417.582 579.443 417.582C583.061 417.582 582.925 415.428 586.522 415.428C590.119 415.428 590.298 417.582 593.822 417.582C597.345 417.582 597.021 415.428 600.632 415.428" stroke="white" stroke-width="2.5"/>
<path d="M558.359 421.285C561.949 421.285 561.428 423.439 564.851 423.439C568.275 423.439 568.388 421.285 572.038 421.285C575.688 421.285 575.825 423.439 579.443 423.439C583.061 423.439 582.925 421.285 586.522 421.285C590.119 421.285 590.298 423.439 593.822 423.439C597.345 423.439 597.021 421.285 600.632 421.285" stroke="white" stroke-width="2.5"/>
</g>
</svg>
